HIERARCHY
ROOT Hips
{
  OFFSET 5.80788e-005 67.184 3.4734
  CHANNELS 6 Xposition Yposition Zposition Zrotation Xrotation Yrotation
  JOINT Chest
  {
    OFFSET 0 8.7983 -4.7612
    CHANNELS 3 Zrotation Xrotation Yrotation
    JOINT Chest2
    {
      OFFSET 0 8.0291 0.4195
      CHANNELS 3 Zrotation Xrotation Yrotation
      JOINT Chest3
      {
        OFFSET 0 9.9351 -2.2114
        CHANNELS 3 Zrotation Xrotation Yrotation
        JOINT Neck
        {
          OFFSET 0 22.3885 -0.4656
          CHANNELS 3 Zrotation Xrotation Yrotation
          JOINT Head
          {
            OFFSET -0.0001 12.643 3.4389
            CHANNELS 3 Zrotation Xrotation Yrotation
            End Site
            {
              OFFSET 0.0001 17.6655 0.5274
            }
          }
        }
        JOINT LeftCollar
        {
          OFFSET 2.2603 21.606 7.4023
          CHANNELS 3 Zrotation Xrotation Yrotation
          JOINT LeftShoulder
          {
            OFFSET 13.5163 -1.1332 -5.0146
            CHANNELS 3 Zrotation Xrotation Yrotation
            JOINT LeftElbow
            {
              OFFSET -0.0995 -28.05 -0.2431
              CHANNELS 3 Zrotation Xrotation Yrotation
              JOINT LeftWrist
              {
                OFFSET 0.0679 -23.3996 -0.1402
                CHANNELS 3 Zrotation Xrotation Yrotation
                JOINT LeftFinger1
                {
                  OFFSET 0.7932 -9.069 2.5189
                  CHANNELS 3 Zrotation Xrotation Yrotation
                  JOINT LeftFinger11
                  {
                    OFFSET -0.8272 -3.3923 0.5977
                    CHANNELS 3 Zrotation Xrotation Yrotation
                    JOINT LeftFinger12
                    {
                      OFFSET -0.5649 -2.3158 0.4082
                      CHANNELS 3 Zrotation Xrotation Yrotation
                      End Site
                      {
                        OFFSET -0.4919 -1.6479 0.2673
                      }
                    }
                  }
                }
                JOINT LeftFinger2
                {
                  OFFSET 0.9159 -9.2044 0.2193
                  CHANNELS 3 Zrotation Xrotation Yrotation
                  JOINT LeftFinger21
                  {
                    OFFSET 0.0117 -4.1944 -0.0248
                    CHANNELS 3 Zrotation Xrotation Yrotation
                    JOINT LeftFinger22
                    {
                      OFFSET 0.0071 -2.3249 -0.0142
                      CHANNELS 3 Zrotation Xrotation Yrotation
                      End Site
                      {
                        OFFSET -0.1475 -2.0882 0.0028
                      }
                    }
                  }
                }
                JOINT LeftFinger3
                {
                  OFFSET 0.6113 -8.7231 -2.0637
                  CHANNELS 3 Zrotation Xrotation Yrotation
                  JOINT LeftFinger31
                  {
                    OFFSET -0.1927 -3.8059 -0.2383
                    CHANNELS 3 Zrotation Xrotation Yrotation
                    JOINT LeftFinger32
                    {
                      OFFSET -0.1091 -2.1688 -0.1362
                      CHANNELS 3 Zrotation Xrotation Yrotation
                      End Site
                      {
                        OFFSET -0.2358 -1.9176 -0.0906
                      }
                    }
                  }
                }
                JOINT LeftFinger4
                {
                  OFFSET -0.6151 -8.0947 -3.5641
                  CHANNELS 3 Zrotation Xrotation Yrotation
                  JOINT LeftFinger41
                  {
                    OFFSET -0.4882 -2.341 -0.6462
                    CHANNELS 3 Zrotation Xrotation Yrotation
                    JOINT LeftFinger42
                    {
                      OFFSET -0.3575 -1.7167 -0.4742
                      CHANNELS 3 Zrotation Xrotation Yrotation
                      End Site
                      {
                        OFFSET -0.4187 -1.5237 -0.3496
                      }
                    }
                  }
                }
                JOINT LeftFinger0
                {
                  OFFSET -1.42 -1.8761 1.4223
                  CHANNELS 3 Zrotation Xrotation Yrotation
                  JOINT LeftFinger01
                  {
                    OFFSET -1.1471 -3.4929 2.6334
                    CHANNELS 3 Zrotation Xrotation Yrotation
                    JOINT LeftFinger02
                    {
                      OFFSET -0.823 -2.3 1.6571
                      CHANNELS 3 Zrotation Xrotation Yrotation
                      End Site
                      {
                        OFFSET -0.5822 -1.6914 1.1582
                      }
                    }
                  }
                }
              }
            }
          }
        }
        JOINT RightCollar
        {
          OFFSET -2.2603 21.606 7.4023
          CHANNELS 3 Zrotation Xrotation Yrotation
          JOINT RightShoulder
          {
            OFFSET -13.5187 -1.1334 -5.0155
            CHANNELS 3 Zrotation Xrotation Yrotation
            JOINT RightElbow
            {
              OFFSET 0.0994 -28.0499 -0.2431
              CHANNELS 3 Zrotation Xrotation Yrotation
              JOINT RightWrist
              {
                OFFSET -0.0679 -23.3996 -0.1402
                CHANNELS 3 Zrotation Xrotation Yrotation
                JOINT RightFinger1
                {
                  OFFSET -0.7932 -9.0691 2.5189
                  CHANNELS 3 Zrotation Xrotation Yrotation
                  JOINT RightFinger11
                  {
                    OFFSET 0.8272 -3.3923 0.5977
                    CHANNELS 3 Zrotation Xrotation Yrotation
                    JOINT RightFinger12
                    {
                      OFFSET 0.565 -2.3158 0.4082
                      CHANNELS 3 Zrotation Xrotation Yrotation
                      End Site
                      {
                        OFFSET 0.4919 -1.6479 0.2673
                      }
                    }
                  }
                }
                JOINT RightFinger2
                {
                  OFFSET -0.916 -9.2044 0.2193
                  CHANNELS 3 Zrotation Xrotation Yrotation
                  JOINT RightFinger21
                  {
                    OFFSET -0.0117 -4.1944 -0.0248
                    CHANNELS 3 Zrotation Xrotation Yrotation
                    JOINT RightFinger22
                    {
                      OFFSET -0.0071 -2.3249 -0.0142
                      CHANNELS 3 Zrotation Xrotation Yrotation
                      End Site
                      {
                        OFFSET 0.1475 -2.0882 0.0028
                      }
                    }
                  }
                }
                JOINT RightFinger3
                {
                  OFFSET -0.6113 -8.7231 -2.0637
                  CHANNELS 3 Zrotation Xrotation Yrotation
                  JOINT RightFinger31
                  {
                    OFFSET 0.1927 -3.8059 -0.2383
                    CHANNELS 3 Zrotation Xrotation Yrotation
                    JOINT RightFinger32
                    {
                      OFFSET 0.1091 -2.1688 -0.1362
                      CHANNELS 3 Zrotation Xrotation Yrotation
                      End Site
                      {
                        OFFSET 0.2358 -1.9176 -0.0906
                      }
                    }
                  }
                }
                JOINT RightFinger4
                {
                  OFFSET 0.6151 -8.0947 -3.564
                  CHANNELS 3 Zrotation Xrotation Yrotation
                  JOINT RightFinger41
                  {
                    OFFSET 0.4882 -2.341 -0.6462
                    CHANNELS 3 Zrotation Xrotation Yrotation
                    JOINT RightFinger42
                    {
                      OFFSET 0.3574 -1.7166 -0.4742
                      CHANNELS 3 Zrotation Xrotation Yrotation
                      End Site
                      {
                        OFFSET 0.4187 -1.5237 -0.3496
                      }
                    }
                  }
                }
                JOINT RightFinger0
                {
                  OFFSET 1.4199 -1.8761 1.4221
                  CHANNELS 3 Zrotation Xrotation Yrotation
                  JOINT RightFinger01
                  {
                    OFFSET 1.1472 -3.4929 2.6336
                    CHANNELS 3 Zrotation Xrotation Yrotation
                    JOINT RightFinger02
                    {
                      OFFSET 0.8229 -2.3 1.6571
                      CHANNELS 3 Zrotation Xrotation Yrotation
                      End Site
                      {
                        OFFSET 0.5822 -1.6914 1.1582
                      }
                    }
                  }
                }
              }
            }
          }
        }
      }
    }
  }
  JOINT RightHip
  {
    OFFSET -9.412 3.9771 -0.7758
    CHANNELS 3 Zrotation Xrotation Yrotation
    JOINT RightKnee
    {
      OFFSET -0.7531 -40.938 0
      CHANNELS 3 Zrotation Xrotation Yrotation
      JOINT RightAnkle
      {
        OFFSET 0 -40.1986 0
        CHANNELS 3 Zrotation Xrotation Yrotation
        JOINT RightToe
        {
          OFFSET 0 -4.4182 9.239
          CHANNELS 3 Zrotation Xrotation Yrotation
          End Site
          {
            OFFSET 0 0 6.1981
          }
        }
      }
    }
  }
  JOINT LeftHip
  {
    OFFSET 9.4119 3.9773 -0.7758
    CHANNELS 3 Zrotation Xrotation Yrotation
    JOINT LeftKnee
    {
      OFFSET 0.7532 -40.9383 0
      CHANNELS 3 Zrotation Xrotation Yrotation
      JOINT LeftAnkle
      {
        OFFSET 0 -40.1986 0
        CHANNELS 3 Zrotation Xrotation Yrotation
        JOINT LeftToe
        {
          OFFSET 0 -4.4182 9.239
          CHANNELS 3 Zrotation Xrotation Yrotation
          End Site
          {
            OFFSET 0 0 6.1981
          }
        }
      }
    }
  }
}
MOTION
Frames:	4
Frame Time:	0.0333333
39.8424 36.0068 21.2417 -179.996 51.0054 -2.73616e-007 -0.172885 -1.98781 0.134701 -0.341399 -3.97599 0.263633 -0.3414 -3.97601 0.263633 1.06996e-006 15.9935 -8.65861e-007 3.84833e-008 21.9179 1.68954e-007 6.16073 1.44713 5.38297 99.2983 29.1487 -53.0613 -39.399 -32.4019 -75.9567 1.7491 8.04733 1.64868 -1.05934e-030 9.54166e-015 6.36111e-015 9.43938e-006 -7.48485e-006 -2.17534e-006 9.54166e-015 -9.54166e-015 -3.18055e-015 -1.05934e-030 9.54166e-015 6.36111e-015 -0.0128172 0.00232299 9.44399e-005 -6.36111e-015 -1.90833e-014 6.36111e-015 -1.05934e-030 9.54166e-015 6.36111e-015 -0.0160265 0.00297542 0.000856559 -3.18055e-015 0 -6.36111e-015 -1.05934e-030 9.54166e-015 6.36111e-015 -0.0126138 0.00312619 0.00283262 3.18055e-015 -9.54166e-015 1.59028e-014 -1.05934e-030 9.54166e-015 6.36111e-015 9.43938e-006 -7.48485e-006 -2.17534e-006 9.54166e-015 -9.54166e-015 -3.18055e-015 -6.95443 1.87509 -10.842 -99.9386 26.3661 52.9836 39.0802 -34.1268 75.9478 -1.71582 8.06939 -1.55161 2.79731e-006 1.2458e-007 -9.84067e-006 0 8.49733e-006 -0 -7.3075e-006 -4.04153e-006 3.76158e-006 2.79731e-006 1.2458e-007 -9.84067e-006 0.0129263 0.00232143 -7.56702e-005 -0 0 6.36111e-015 2.79731e-006 1.2458e-007 -9.84067e-006 0.0162815 0.00303004 -0.000858017 3.18055e-015 3.18055e-015 -3.18055e-015 2.79731e-006 1.2458e-007 -9.84067e-006 0.0146475 0.00370782 -0.00326975 3.18055e-015 3.18055e-015 1.27222e-014 2.79731e-006 1.2458e-007 -9.84067e-006 0 8.49733e-006 -0 -7.3075e-006 -4.04153e-006 3.76158e-006 -46.2771 32.035 -29.2253 -71.8961 39.0418 72.2793 12.8114 12.7599 17.0016 -4.51428e-006 1.59264e-006 1.79521e-007 45.042 32.279 28.6076 72.4649 39.3316 -72.6834 -14.5198 12.3158 -15.7026 1.22002e-006 -1.17224e-006 -1.68021e-006 
39.8423 36.0069 21.2416 -179.996 51.0054 -1.83184e-007 -0.17273 -1.95773 0.134979 -0.341141 -3.91582 0.264281 -0.34114 -3.91581 0.26428 4.49139e-006 15.9935 -2.93233e-006 -9.5223e-008 21.341 1.34282e-007 6.16073 1.44716 5.38296 99.2969 29.1358 -53.0597 -39.3991 -32.402 -75.9568 1.7491 8.04733 1.64867 1.17827e-005 -1.8306e-005 -6.19091e-006 -2.29241e-006 1.03109e-005 -1.86526e-006 -2.29242e-006 -1.21102e-006 -1.86526e-006 1.17827e-005 -1.8306e-005 -6.19091e-006 -0.012823 0.00234002 8.78711e-005 1.05934e-030 9.54166e-015 -6.36111e-015 1.17827e-005 -1.8306e-005 -6.19091e-006 -0.0160619 0.00301292 0.000860393 1.00519e-005 7.98182e-007 -1.52409e-006 1.17827e-005 -1.8306e-005 -6.19091e-006 -0.0125988 0.00313476 0.00283594 -3.18055e-015 0 -3.18055e-015 1.17827e-005 -1.8306e-005 -6.19091e-006 -2.29241e-006 1.03109e-005 -1.86526e-006 -2.29242e-006 -1.21102e-006 -1.86526e-006 -6.95443 1.87512 -10.842 -99.9386 26.366 52.9836 39.0802 -34.1267 75.9477 -1.71582 8.06939 -1.55159 5.29669e-031 9.54166e-015 -3.18055e-015 6.36111e-015 6.36111e-015 -0 9.54166e-015 1.27222e-014 3.18055e-015 5.29669e-031 9.54166e-015 -3.18055e-015 0.0129812 0.00232896 -8.74175e-005 2.11868e-030 1.27222e-014 -9.54166e-015 5.29669e-031 9.54166e-015 -3.18055e-015 0.0163449 0.00303777 -0.000873539 5.22068e-006 8.9605e-007 -3.41166e-006 5.29669e-031 9.54166e-015 -3.18055e-015 0.014641 0.00369884 -0.00327616 2.19942e-006 5.56464e-006 1.9158e-006 5.29669e-031 9.54166e-015 -3.18055e-015 6.36111e-015 6.36111e-015 -0 9.54166e-015 1.27222e-014 3.18055e-015 -45.9581 32.1354 -29.0633 -71.8977 39.0421 72.2858 13.19 12.709 16.6307 1.59028e-015 -2.21975e-007 -3.18055e-015 44.8159 32.3525 28.4758 72.4656 39.3316 -72.6878 -14.788 12.2688 -15.4389 -2.38542e-015 -1.58049e-008 3.18055e-015 
39.8421 36.007 21.2415 -179.996 51.0054 -1.19583e-007 -0.172572 -1.92757 0.135256 -0.340877 -3.85557 0.264923 -0.340877 -3.85555 0.264923 -1.17745e-005 15.9933 7.92743e-006 3.35015e-007 20.7643 -1.84642e-007 6.16072 1.44702 5.38299 99.2954 29.1227 -53.058 -39.399 -32.4019 -75.9567 1.7491 8.04734 1.64867 9.64291e-007 4.73356e-006 -1.23622e-006 -3.18055e-015 3.18055e-015 -6.36111e-015 7.06225e-031 1.27222e-014 -3.18055e-015 9.64291e-007 4.73356e-006 -1.23622e-006 -0.0127863 0.00230357 7.85757e-005 0 0 -3.18055e-015 9.64291e-007 4.73356e-006 -1.23622e-006 -0.0160195 0.00297552 0.000855013 -3.18055e-015 -6.36111e-015 -0 9.64291e-007 4.73356e-006 -1.23622e-006 -0.0125651 0.0031032 0.00282689 6.36111e-015 -9.54166e-015 -6.36111e-015 9.64291e-007 4.73356e-006 -1.23622e-006 -3.18055e-015 3.18055e-015 -6.36111e-015 7.06225e-031 1.27222e-014 -3.18055e-015 -6.95445 1.87497 -10.842 -99.9385 26.366 52.9835 39.0802 -34.1267 75.9477 -1.71582 8.06939 -1.5516 -3.18055e-015 -3.18055e-015 1.27222e-014 -4.91818e-006 -6.99489e-006 1.01601e-005 6.36111e-015 3.18055e-015 -3.18055e-015 -3.18055e-015 -3.18055e-015 1.27222e-014 0.012969 0.00232319 -8.71229e-005 3.53113e-031 -6.36111e-015 3.18055e-015 -3.18055e-015 -3.18055e-015 1.27222e-014 0.0163649 0.00302988 -0.000872307 9.52002e-006 1.17812e-005 -1.81753e-006 -3.18055e-015 -3.18055e-015 1.27222e-014 0.0146074 0.00369186 -0.00326565 -6.36111e-015 0 -0 -3.18055e-015 -3.18055e-015 1.27222e-014 -4.91818e-006 -6.99489e-006 1.01601e-005 6.36111e-015 3.18055e-015 -3.18055e-015 -45.6391 32.2366 -28.902 -71.8995 39.0424 72.2926 13.5681 12.6557 16.2601 4.99034e-007 5.16473e-006 -4.75862e-006 44.5898 32.4265 28.3443 72.4664 39.3318 -72.6922 -15.0558 12.2205 -15.1755 -0 -1.59028e-015 -0 
39.842 36.0071 21.2414 -179.996 51.0054 2.63347e-008 -0.172418 -1.89752 0.135535 -0.340621 -3.7954 0.265571 -0.340621 -3.7954 0.265571 -7.92088e-007 15.9935 4.88767e-007 -2.28207e-007 20.1876 9.81514e-008 6.16072 1.44713 5.38297 99.294 29.1098 -53.0564 -39.399 -32.402 -75.9567 1.74909 8.04732 1.64869 -6.36111e-015 -3.18055e-015 -6.36111e-015 -0 0 9.54166e-015 -6.36111e-015 0 6.36111e-015 -6.36111e-015 -3.18055e-015 -6.36111e-015 -0.0128336 0.00231615 8.32789e-005 3.18055e-015 6.36111e-015 -0 -6.36111e-015 -3.18055e-015 -6.36111e-015 -0.01607 0.00299474 0.000860191 0 0 -0 -6.36111e-015 -3.18055e-015 -6.36111e-015 -0.0125553 0.00311157 0.00281999 6.36111e-015 3.18055e-015 -0 -6.36111e-015 -3.18055e-015 -6.36111e-015 -0 0 9.54166e-015 -6.36111e-015 0 6.36111e-015 -6.95444 1.87509 -10.842 -99.9385 26.366 52.9836 39.0802 -34.1267 75.9477 -1.71584 8.06937 -1.55157 -6.36111e-015 0 -3.18055e-015 6.36111e-015 0 -0 -0 0 6.36111e-015 -6.36111e-015 0 -3.18055e-015 0.0129492 0.0023167 -8.98567e-005 1.1726e-005 1.93156e-005 1.26922e-007 -6.36111e-015 0 -3.18055e-015 0.0163701 0.00304941 -0.000880666 3.18055e-015 3.18055e-015 6.36111e-015 -6.36111e-015 0 -3.18055e-015 0.014569 0.0036755 -0.00325543 -9.54166e-015 -3.18055e-015 -0 -6.36111e-015 0 -3.18055e-015 6.36111e-015 0 -0 -0 0 6.36111e-015 -45.3202 32.3385 -28.7411 -71.9012 39.0426 72.2992 13.9458 12.5999 15.89 6.11724e-006 8.802e-007 -3.16768e-007 44.3638 32.501 28.213 72.4672 39.3319 -72.6965 -15.3234 12.171 -14.9123 3.18387e-006 2.18112e-007 -2.77378e-007 
